<?xml version="1.0" encoding="UTF-8" standalone="no"?>
<!-- Created with Inkscape (http://www.inkscape.org/) -->
<svg
   xmlns:svg="http://www.w3.org/2000/svg"
   xmlns="http://www.w3.org/2000/svg"
   version="1.0"
   width="1379.9589"
   height="955.68878"
   id="svg2184">
  <defs
     id="defs2186" />
  <g
     transform="translate(1600,131.59431)"
     id="layer1">
    <path
       d="M 104,80.000001 39.584401,79.760055 7.5844008,23.854537 40,-31.811036 l 64.4156,0.239946 32,55.905518 L 104,80.000001 z"
       transform="translate(-1510.6439,13.988378)"
       id="path5166"
       style="color:#000000;fill:none;stroke:#000000;stroke-width:3.54330707;stroke-linecap:round;stroke-linejoin:miter;stroke-miterlimit:4;stroke-opacity:1;stroke-dashoffset:0;marker:none;visibility:visible;display:inline;overflow:visible;enable-background:accumulate" />
    <path
       d="M 104,80.000001 39.584401,79.760055 7.5844008,23.854537 40,-31.811036 l 64.4156,0.239946 32,55.905518 L 104,80.000001 z"
       transform="translate(-1414.6439,69.988378)"
       id="path5549"
       style="color:#000000;fill:none;stroke:#000000;stroke-width:3.54330707;stroke-linecap:round;stroke-linejoin:miter;stroke-miterlimit:4;stroke-opacity:1;stroke-dashoffset:0;marker:none;visibility:visible;display:inline;overflow:visible;enable-background:accumulate" />
    <path
       d="M 104,80.000001 39.584401,79.760055 7.5844008,23.854537 40,-31.811036 l 64.4156,0.239946 32,55.905518 L 104,80.000001 z"
       transform="translate(-1414.2283,-41.771672)"
       id="path5551"
       style="color:#000000;fill:none;stroke:#000000;stroke-width:3.54330707;stroke-linecap:round;stroke-linejoin:miter;stroke-miterlimit:4;stroke-opacity:1;stroke-dashoffset:0;marker:none;visibility:visible;display:inline;overflow:visible;enable-background:accumulate" />
    <path
       d="M 104,80.000001 39.584401,79.760055 7.5844008,23.854537 40,-31.811036 l 64.4156,0.239946 32,55.905518 L 104,80.000001 z"
       transform="translate(-1318.2283,14.228328)"
       id="path5553"
       style="color:#000000;fill:none;stroke:#000000;stroke-width:3.54330707;stroke-linecap:round;stroke-linejoin:miter;stroke-miterlimit:4;stroke-opacity:1;stroke-dashoffset:0;marker:none;visibility:visible;display:inline;overflow:visible;enable-background:accumulate" />
    <path
       d="M 104,80.000001 39.584401,79.760055 7.5844008,23.854537 40,-31.811036 l 64.4156,0.239946 32,55.905518 L 104,80.000001 z"
       transform="translate(-1414.2283,182.32281)"
       id="path5555"
       style="color:#000000;fill:none;stroke:#000000;stroke-width:3.54330707;stroke-linecap:round;stroke-linejoin:miter;stroke-miterlimit:4;stroke-opacity:1;stroke-dashoffset:0;marker:none;visibility:visible;display:inline;overflow:visible;enable-background:accumulate" />
    <path
       d="M 104,80.000001 39.584401,79.760055 7.5844008,23.854537 40,-31.811036 l 64.4156,0.239946 32,55.905518 L 104,80.000001 z"
       transform="translate(-1318.2283,238.32281)"
       id="path5557"
       style="color:#000000;fill:none;stroke:#000000;stroke-width:3.54330707;stroke-linecap:round;stroke-linejoin:miter;stroke-miterlimit:4;stroke-opacity:1;stroke-dashoffset:0;marker:none;visibility:visible;display:inline;overflow:visible;enable-background:accumulate" />
    <path
       d="M 104,80.000001 39.584401,79.760055 7.5844008,23.854537 40,-31.811036 l 64.4156,0.239946 32,55.905518 L 104,80.000001 z"
       transform="translate(-1317.8127,126.56276)"
       id="path5559"
       style="color:#000000;fill:none;stroke:#000000;stroke-width:3.54330707;stroke-linecap:round;stroke-linejoin:miter;stroke-miterlimit:4;stroke-opacity:1;stroke-dashoffset:0;marker:none;visibility:visible;display:inline;overflow:visible;enable-background:accumulate" />
    <path
       d="M 104,80.000001 39.584401,79.760055 7.5844008,23.854537 40,-31.811036 l 64.4156,0.239946 32,55.905518 L 104,80.000001 z"
       transform="translate(-1221.8127,182.56276)"
       id="path5561"
       style="color:#000000;fill:none;stroke:#000000;stroke-width:3.54330707;stroke-linecap:round;stroke-linejoin:miter;stroke-miterlimit:4;stroke-opacity:1;stroke-dashoffset:0;marker:none;visibility:visible;display:inline;overflow:visible;enable-background:accumulate" />
    <path
       d="M 104,80.000001 39.584401,79.760055 7.5844008,23.854537 40,-31.811036 l 64.4156,0.239946 32,55.905518 L 104,80.000001 z"
       transform="translate(-1223.0595,69.653948)"
       id="path5563"
       style="color:#000000;fill:none;stroke:#000000;stroke-width:3.54330707;stroke-linecap:round;stroke-linejoin:miter;stroke-miterlimit:4;stroke-opacity:1;stroke-dashoffset:0;marker:none;visibility:visible;display:inline;overflow:visible;enable-background:accumulate" />
    <path
       d="M 104,80.000001 39.584401,79.760055 7.5844008,23.854537 40,-31.811036 l 64.4156,0.239946 32,55.905518 L 104,80.000001 z"
       transform="translate(-1127.0595,125.65395)"
       id="path5565"
       style="color:#000000;fill:none;stroke:#000000;stroke-width:3.54330707;stroke-linecap:round;stroke-linejoin:miter;stroke-miterlimit:4;stroke-opacity:1;stroke-dashoffset:0;marker:none;visibility:visible;display:inline;overflow:visible;enable-background:accumulate" />
    <path
       d="M 104,80.000001 39.584401,79.760055 7.5844008,23.854537 40,-31.811036 l 64.4156,0.239946 32,55.905518 L 104,80.000001 z"
       transform="translate(-1126.6439,13.893898)"
       id="path5567"
       style="color:#000000;fill:none;stroke:#000000;stroke-width:3.54330707;stroke-linecap:round;stroke-linejoin:miter;stroke-miterlimit:4;stroke-opacity:1;stroke-dashoffset:0;marker:none;visibility:visible;display:inline;overflow:visible;enable-background:accumulate" />
    <path
       d="M 104,80.000001 39.584401,79.760055 7.5844008,23.854537 40,-31.811036 l 64.4156,0.239946 32,55.905518 L 104,80.000001 z"
       transform="translate(-1030.6439,69.893888)"
       id="path5569"
       style="color:#000000;fill:none;stroke:#000000;stroke-width:3.54330707;stroke-linecap:round;stroke-linejoin:miter;stroke-miterlimit:4;stroke-opacity:1;stroke-dashoffset:0;marker:none;visibility:visible;display:inline;overflow:visible;enable-background:accumulate" />
    <path
       d="M 104,80.000001 39.584401,79.760055 7.5844008,23.854537 40,-31.811036 l 64.4156,0.239946 32,55.905518 L 104,80.000001 z"
       transform="translate(-1126.6439,237.98838)"
       id="path5571"
       style="color:#000000;fill:none;stroke:#000000;stroke-width:3.54330707;stroke-linecap:round;stroke-linejoin:miter;stroke-miterlimit:4;stroke-opacity:1;stroke-dashoffset:0;marker:none;visibility:visible;display:inline;overflow:visible;enable-background:accumulate" />
    <path
       d="M 104,80.000001 39.584401,79.760055 7.5844008,23.854537 40,-31.811036 l 64.4156,0.239946 32,55.905518 L 104,80.000001 z"
       transform="translate(-1030.6439,293.98838)"
       id="path5573"
       style="color:#000000;fill:none;stroke:#000000;stroke-width:3.54330707;stroke-linecap:round;stroke-linejoin:miter;stroke-miterlimit:4;stroke-opacity:1;stroke-dashoffset:0;marker:none;visibility:visible;display:inline;overflow:visible;enable-background:accumulate" />
    <path
       d="M 104,80.000001 39.584401,79.760055 7.5844008,23.854537 40,-31.811036 l 64.4156,0.239946 32,55.905518 L 104,80.000001 z"
       transform="translate(-1030.2283,182.22833)"
       id="path5575"
       style="color:#000000;fill:none;stroke:#000000;stroke-width:3.54330707;stroke-linecap:round;stroke-linejoin:miter;stroke-miterlimit:4;stroke-opacity:1;stroke-dashoffset:0;marker:none;visibility:visible;display:inline;overflow:visible;enable-background:accumulate" />
    <path
       d="M 104,80.000001 39.584401,79.760055 7.5844008,23.854537 40,-31.811036 l 64.4156,0.239946 32,55.905518 L 104,80.000001 z"
       transform="translate(-934.22835,238.22833)"
       id="path5577"
       style="color:#000000;fill:none;stroke:#000000;stroke-width:3.54330707;stroke-linecap:round;stroke-linejoin:miter;stroke-miterlimit:4;stroke-opacity:1;stroke-dashoffset:0;marker:none;visibility:visible;display:inline;overflow:visible;enable-background:accumulate" />
    <path
       d="M 104,80.000001 39.584401,79.760055 7.5844008,23.854537 40,-31.811036 l 64.4156,0.239946 32,55.905518 L 104,80.000001 z"
       transform="translate(-1318.2283,350.32281)"
       id="path5579"
       style="color:#000000;fill:none;stroke:#000000;stroke-width:3.54330707;stroke-linecap:round;stroke-linejoin:miter;stroke-miterlimit:4;stroke-opacity:1;stroke-dashoffset:0;marker:none;visibility:visible;display:inline;overflow:visible;enable-background:accumulate" />
    <path
       d="M 104,80.000001 39.584401,79.760055 7.5844008,23.854537 40,-31.811036 l 64.4156,0.239946 32,55.905518 L 104,80.000001 z"
       transform="translate(-1222.2283,406.32283)"
       id="path5581"
       style="color:#000000;fill:none;stroke:#000000;stroke-width:3.54330707;stroke-linecap:round;stroke-linejoin:miter;stroke-miterlimit:4;stroke-opacity:1;stroke-dashoffset:0;marker:none;visibility:visible;display:inline;overflow:visible;enable-background:accumulate" />
    <path
       d="M 104,80.000001 39.584401,79.760055 7.5844008,23.854537 40,-31.811036 l 64.4156,0.239946 32,55.905518 L 104,80.000001 z"
       transform="translate(-1221.8127,294.56276)"
       id="path5583"
       style="color:#000000;fill:none;stroke:#000000;stroke-width:3.54330707;stroke-linecap:round;stroke-linejoin:miter;stroke-miterlimit:4;stroke-opacity:1;stroke-dashoffset:0;marker:none;visibility:visible;display:inline;overflow:visible;enable-background:accumulate" />
    <path
       d="M 104,80.000001 39.584401,79.760055 7.5844008,23.854537 40,-31.811036 l 64.4156,0.239946 32,55.905518 L 104,80.000001 z"
       transform="translate(-1125.8127,350.56275)"
       id="path5585"
       style="color:#000000;fill:none;stroke:#000000;stroke-width:3.54330707;stroke-linecap:round;stroke-linejoin:miter;stroke-miterlimit:4;stroke-opacity:1;stroke-dashoffset:0;marker:none;visibility:visible;display:inline;overflow:visible;enable-background:accumulate" />
    <path
       d="M 104,80.000001 39.584401,79.760055 7.5844008,23.854537 40,-31.811036 l 64.4156,0.239946 32,55.905518 L 104,80.000001 z"
       transform="translate(-1221.8127,518.65723)"
       id="path5587"
       style="color:#000000;fill:none;stroke:#000000;stroke-width:3.54330707;stroke-linecap:round;stroke-linejoin:miter;stroke-miterlimit:4;stroke-opacity:1;stroke-dashoffset:0;marker:none;visibility:visible;display:inline;overflow:visible;enable-background:accumulate" />
    <path
       d="M 104,80.000001 39.584401,79.760055 7.5844008,23.854537 40,-31.811036 l 64.4156,0.239946 32,55.905518 L 104,80.000001 z"
       transform="translate(-1125.8127,574.65723)"
       id="path5589"
       style="color:#000000;fill:none;stroke:#000000;stroke-width:3.54330707;stroke-linecap:round;stroke-linejoin:miter;stroke-miterlimit:4;stroke-opacity:1;stroke-dashoffset:0;marker:none;visibility:visible;display:inline;overflow:visible;enable-background:accumulate" />
    <path
       d="M 104,80.000001 39.584401,79.760055 7.5844008,23.854537 40,-31.811036 l 64.4156,0.239946 32,55.905518 L 104,80.000001 z"
       transform="translate(-1125.3971,462.89723)"
       id="path5591"
       style="color:#000000;fill:none;stroke:#000000;stroke-width:3.54330707;stroke-linecap:round;stroke-linejoin:miter;stroke-miterlimit:4;stroke-opacity:1;stroke-dashoffset:0;marker:none;visibility:visible;display:inline;overflow:visible;enable-background:accumulate" />
    <path
       d="M 104,80.000001 39.584401,79.760055 7.5844008,23.854537 40,-31.811036 l 64.4156,0.239946 32,55.905518 L 104,80.000001 z"
       transform="translate(-1029.3971,518.89723)"
       id="path5593"
       style="color:#000000;fill:none;stroke:#000000;stroke-width:3.54330707;stroke-linecap:round;stroke-linejoin:miter;stroke-miterlimit:4;stroke-opacity:1;stroke-dashoffset:0;marker:none;visibility:visible;display:inline;overflow:visible;enable-background:accumulate" />
    <path
       d="M 104,80.000001 39.584401,79.760055 7.5844008,23.854537 40,-31.811036 l 64.4156,0.239946 32,55.905518 L 104,80.000001 z"
       transform="translate(-1030.6439,405.98843)"
       id="path5595"
       style="color:#000000;fill:none;stroke:#000000;stroke-width:3.54330707;stroke-linecap:round;stroke-linejoin:miter;stroke-miterlimit:4;stroke-opacity:1;stroke-dashoffset:0;marker:none;visibility:visible;display:inline;overflow:visible;enable-background:accumulate" />
    <path
       d="M 104,80.000001 39.584401,79.760055 7.5844008,23.854537 40,-31.811036 l 64.4156,0.239946 32,55.905518 L 104,80.000001 z"
       transform="translate(-934.64395,461.98843)"
       id="path5597"
       style="color:#000000;fill:none;stroke:#000000;stroke-width:3.54330707;stroke-linecap:round;stroke-linejoin:miter;stroke-miterlimit:4;stroke-opacity:1;stroke-dashoffset:0;marker:none;visibility:visible;display:inline;overflow:visible;enable-background:accumulate" />
    <path
       d="M 104,80.000001 39.584401,79.760055 7.5844008,23.854537 40,-31.811036 l 64.4156,0.239946 32,55.905518 L 104,80.000001 z"
       transform="translate(-934.22835,350.22833)"
       id="path5599"
       style="color:#000000;fill:none;stroke:#000000;stroke-width:3.54330707;stroke-linecap:round;stroke-linejoin:miter;stroke-miterlimit:4;stroke-opacity:1;stroke-dashoffset:0;marker:none;visibility:visible;display:inline;overflow:visible;enable-background:accumulate" />
    <path
       d="M 104,80.000001 39.584401,79.760055 7.5844008,23.854537 40,-31.811036 l 64.4156,0.239946 32,55.905518 L 104,80.000001 z"
       transform="translate(-838.22835,406.22833)"
       id="path5601"
       style="color:#000000;fill:none;stroke:#000000;stroke-width:3.54330707;stroke-linecap:round;stroke-linejoin:miter;stroke-miterlimit:4;stroke-opacity:1;stroke-dashoffset:0;marker:none;visibility:visible;display:inline;overflow:visible;enable-background:accumulate" />
    <path
       d="M 104,80.000001 39.584401,79.760055 7.5844008,23.854537 40,-31.811036 l 64.4156,0.239946 32,55.905518 L 104,80.000001 z"
       transform="translate(-934.22835,574.32283)"
       id="path5603"
       style="color:#000000;fill:none;stroke:#000000;stroke-width:3.54330707;stroke-linecap:round;stroke-linejoin:miter;stroke-miterlimit:4;stroke-opacity:1;stroke-dashoffset:0;marker:none;visibility:visible;display:inline;overflow:visible;enable-background:accumulate" />
    <path
       d="M 104,80.000001 39.584401,79.760055 7.5844008,23.854537 40,-31.811036 l 64.4156,0.239946 32,55.905518 L 104,80.000001 z"
       transform="translate(-838.22835,630.32283)"
       id="path5605"
       style="color:#000000;fill:none;stroke:#000000;stroke-width:3.54330707;stroke-linecap:round;stroke-linejoin:miter;stroke-miterlimit:4;stroke-opacity:1;stroke-dashoffset:0;marker:none;visibility:visible;display:inline;overflow:visible;enable-background:accumulate" />
    <path
       d="M 104,80.000001 39.584401,79.760055 7.5844008,23.854537 40,-31.811036 l 64.4156,0.239946 32,55.905518 L 104,80.000001 z"
       transform="translate(-837.81275,518.56273)"
       id="path5607"
       style="color:#000000;fill:none;stroke:#000000;stroke-width:3.54330707;stroke-linecap:round;stroke-linejoin:miter;stroke-miterlimit:4;stroke-opacity:1;stroke-dashoffset:0;marker:none;visibility:visible;display:inline;overflow:visible;enable-background:accumulate" />
    <path
       d="M 104,80.000001 39.584401,79.760055 7.5844008,23.854537 40,-31.811036 l 64.4156,0.239946 32,55.905518 L 104,80.000001 z"
       transform="translate(-741.81275,574.56273)"
       id="path5609"
       style="color:#000000;fill:none;stroke:#000000;stroke-width:3.54330707;stroke-linecap:round;stroke-linejoin:miter;stroke-miterlimit:4;stroke-opacity:1;stroke-dashoffset:0;marker:none;visibility:visible;display:inline;overflow:visible;enable-background:accumulate" />
    <path
       d="M 104,80.000001 39.584401,79.760055 7.5844008,23.854537 40,-31.811036 l 64.4156,0.239946 32,55.905518 L 104,80.000001 z"
       transform="translate(-839.47515,293.50848)"
       id="path5611"
       style="color:#000000;fill:none;stroke:#000000;stroke-width:3.54330707;stroke-linecap:round;stroke-linejoin:miter;stroke-miterlimit:4;stroke-opacity:1;stroke-dashoffset:0;marker:none;visibility:visible;display:inline;overflow:visible;enable-background:accumulate" />
    <path
       d="M 104,80.000001 39.584401,79.760055 7.5844008,23.854537 40,-31.811036 l 64.4156,0.239946 32,55.905518 L 104,80.000001 z"
       transform="translate(-743.47515,349.50848)"
       id="path5613"
       style="color:#000000;fill:none;stroke:#000000;stroke-width:3.54330707;stroke-linecap:round;stroke-linejoin:miter;stroke-miterlimit:4;stroke-opacity:1;stroke-dashoffset:0;marker:none;visibility:visible;display:inline;overflow:visible;enable-background:accumulate" />
    <path
       d="M 104,80.000001 39.584401,79.760055 7.5844008,23.854537 40,-31.811036 l 64.4156,0.239946 32,55.905518 L 104,80.000001 z"
       transform="translate(-743.05955,237.74843)"
       id="path5615"
       style="color:#000000;fill:none;stroke:#000000;stroke-width:3.54330707;stroke-linecap:round;stroke-linejoin:miter;stroke-miterlimit:4;stroke-opacity:1;stroke-dashoffset:0;marker:none;visibility:visible;display:inline;overflow:visible;enable-background:accumulate" />
    <path
       d="M 104,80.000001 39.584401,79.760055 7.5844008,23.854537 40,-31.811036 l 64.4156,0.239946 32,55.905518 L 104,80.000001 z"
       transform="translate(-647.05955,293.74842)"
       id="path5617"
       style="color:#000000;fill:none;stroke:#000000;stroke-width:3.54330707;stroke-linecap:round;stroke-linejoin:miter;stroke-miterlimit:4;stroke-opacity:1;stroke-dashoffset:0;marker:none;visibility:visible;display:inline;overflow:visible;enable-background:accumulate" />
    <path
       d="M 104,80.000001 39.584401,79.760055 7.5844008,23.854537 40,-31.811036 l 64.4156,0.239946 32,55.905518 L 104,80.000001 z"
       transform="translate(-743.05955,461.84293)"
       id="path5619"
       style="color:#000000;fill:none;stroke:#000000;stroke-width:3.54330707;stroke-linecap:round;stroke-linejoin:miter;stroke-miterlimit:4;stroke-opacity:1;stroke-dashoffset:0;marker:none;visibility:visible;display:inline;overflow:visible;enable-background:accumulate" />
    <path
       d="M 104,80.000001 39.584401,79.760055 7.5844008,23.854537 40,-31.811036 l 64.4156,0.239946 32,55.905518 L 104,80.000001 z"
       transform="translate(-647.05955,517.84293)"
       id="path5621"
       style="color:#000000;fill:none;stroke:#000000;stroke-width:3.54330707;stroke-linecap:round;stroke-linejoin:miter;stroke-miterlimit:4;stroke-opacity:1;stroke-dashoffset:0;marker:none;visibility:visible;display:inline;overflow:visible;enable-background:accumulate" />
    <path
       d="M 104,80.000001 39.584401,79.760055 7.5844008,23.854537 40,-31.811036 l 64.4156,0.239946 32,55.905518 L 104,80.000001 z"
       transform="translate(-646.64395,406.08283)"
       id="path5623"
       style="color:#000000;fill:none;stroke:#000000;stroke-width:3.54330707;stroke-linecap:round;stroke-linejoin:miter;stroke-miterlimit:4;stroke-opacity:1;stroke-dashoffset:0;marker:none;visibility:visible;display:inline;overflow:visible;enable-background:accumulate" />
    <path
       d="M 104,80.000001 39.584401,79.760055 7.5844008,23.854537 40,-31.811036 l 64.4156,0.239946 32,55.905518 L 104,80.000001 z"
       transform="translate(-550.64395,462.08283)"
       id="path5625"
       style="color:#000000;fill:none;stroke:#000000;stroke-width:3.54330707;stroke-linecap:round;stroke-linejoin:miter;stroke-miterlimit:4;stroke-opacity:1;stroke-dashoffset:0;marker:none;visibility:visible;display:inline;overflow:visible;enable-background:accumulate" />
    <path
       d="M 104,80.000001 39.584401,79.760055 7.5844008,23.854537 40,-31.811036 l 64.4156,0.239946 32,55.905518 L 104,80.000001 z"
       transform="translate(-550.64395,350.08287)"
       id="path5635"
       style="color:#000000;fill:none;stroke:#000000;stroke-width:3.54330707;stroke-linecap:round;stroke-linejoin:miter;stroke-miterlimit:4;stroke-opacity:1;stroke-dashoffset:0;marker:none;visibility:visible;display:inline;overflow:visible;enable-background:accumulate" />
    <path
       d="M 104,80.000001 39.584401,79.760055 7.5844008,23.854537 40,-31.811036 l 64.4156,0.239946 32,55.905518 L 104,80.000001 z"
       transform="translate(-454.64395,406.08293)"
       id="path5637"
       style="color:#000000;fill:none;stroke:#000000;stroke-width:3.54330707;stroke-linecap:round;stroke-linejoin:miter;stroke-miterlimit:4;stroke-opacity:1;stroke-dashoffset:0;marker:none;visibility:visible;display:inline;overflow:visible;enable-background:accumulate" />
    <path
       d="M 104,80.000001 39.584401,79.760055 7.5844008,23.854537 40,-31.811036 l 64.4156,0.239946 32,55.905518 L 104,80.000001 z"
       transform="translate(-454.22835,294.32282)"
       id="path5639"
       style="color:#000000;fill:none;stroke:#000000;stroke-width:3.54330707;stroke-linecap:round;stroke-linejoin:miter;stroke-miterlimit:4;stroke-opacity:1;stroke-dashoffset:0;marker:none;visibility:visible;display:inline;overflow:visible;enable-background:accumulate" />
    <path
       d="M 104,80.000001 39.584401,79.760055 7.5844008,23.854537 40,-31.811036 l 64.4156,0.239946 32,55.905518 L 104,80.000001 z"
       transform="translate(-358.22835,350.32282)"
       id="path5641"
       style="color:#000000;fill:none;stroke:#000000;stroke-width:3.54330707;stroke-linecap:round;stroke-linejoin:miter;stroke-miterlimit:4;stroke-opacity:1;stroke-dashoffset:0;marker:none;visibility:visible;display:inline;overflow:visible;enable-background:accumulate" />
    <path
       d="M 104,80.000001 39.584401,79.760055 7.5844008,23.854537 40,-31.811036 l 64.4156,0.239946 32,55.905518 L 104,80.000001 z"
       transform="translate(-934.64395,126.08286)"
       id="path5643"
       style="color:#000000;fill:none;stroke:#000000;stroke-width:3.54330707;stroke-linecap:round;stroke-linejoin:miter;stroke-miterlimit:4;stroke-opacity:1;stroke-dashoffset:0;marker:none;visibility:visible;display:inline;overflow:visible;enable-background:accumulate" />
    <path
       d="M 104,80.000001 39.584401,79.760055 7.5844008,23.854537 40,-31.811036 l 64.4156,0.239946 32,55.905518 L 104,80.000001 z"
       transform="translate(-838.64395,182.08286)"
       id="path5645"
       style="color:#000000;fill:none;stroke:#000000;stroke-width:3.54330707;stroke-linecap:round;stroke-linejoin:miter;stroke-miterlimit:4;stroke-opacity:1;stroke-dashoffset:0;marker:none;visibility:visible;display:inline;overflow:visible;enable-background:accumulate" />
    <path
       d="M 104,80.000001 39.584401,79.760055 7.5844008,23.854537 40,-31.811036 l 64.4156,0.239946 32,55.905518 L 104,80.000001 z"
       transform="translate(-838.22835,70.322808)"
       id="path5647"
       style="color:#000000;fill:none;stroke:#000000;stroke-width:3.54330707;stroke-linecap:round;stroke-linejoin:miter;stroke-miterlimit:4;stroke-opacity:1;stroke-dashoffset:0;marker:none;visibility:visible;display:inline;overflow:visible;enable-background:accumulate" />
    <path
       d="M 104,80.000001 39.584401,79.760055 7.5844008,23.854537 40,-31.811036 l 64.4156,0.239946 32,55.905518 L 104,80.000001 z"
       transform="translate(-742.22835,126.32281)"
       id="path5649"
       style="color:#000000;fill:none;stroke:#000000;stroke-width:3.54330707;stroke-linecap:round;stroke-linejoin:miter;stroke-miterlimit:4;stroke-opacity:1;stroke-dashoffset:0;marker:none;visibility:visible;display:inline;overflow:visible;enable-background:accumulate" />
    <path
       d="M 104,80.000001 39.584401,79.760055 7.5844008,23.854537 40,-31.811036 l 64.4156,0.239946 32,55.905518 L 104,80.000001 z"
       transform="translate(-644.04105,71.760028)"
       id="path5653"
       style="color:#000000;fill:none;stroke:#000000;stroke-width:3.54330707;stroke-linecap:round;stroke-linejoin:miter;stroke-miterlimit:4;stroke-opacity:1;stroke-dashoffset:0;marker:none;visibility:visible;display:inline;overflow:visible;enable-background:accumulate" />
    <path
       d="M 104,80.000001 39.584401,79.760055 7.5844008,23.854537 40,-31.811036 l 64.4156,0.239946 32,55.905518 L 104,80.000001 z"
       transform="translate(-1031.0595,-42.251562)"
       id="path5659"
       style="color:#000000;fill:none;stroke:#000000;stroke-width:3.54330707;stroke-linecap:round;stroke-linejoin:miter;stroke-miterlimit:4;stroke-opacity:1;stroke-dashoffset:0;marker:none;visibility:visible;display:inline;overflow:visible;enable-background:accumulate" />
    <path
       d="M 104,80.000001 39.584401,79.760055 7.5844008,23.854537 40,-31.811036 l 64.4156,0.239946 32,55.905518 L 104,80.000001 z"
       transform="translate(-935.05955,13.748428)"
       id="path5661"
       style="color:#000000;fill:none;stroke:#000000;stroke-width:3.54330707;stroke-linecap:round;stroke-linejoin:miter;stroke-miterlimit:4;stroke-opacity:1;stroke-dashoffset:0;marker:none;visibility:visible;display:inline;overflow:visible;enable-background:accumulate" />
    <path
       d="M 104,80.000001 39.584401,79.760055 7.5844008,23.854537 40,-31.811036 l 64.4156,0.239946 32,55.905518 L 104,80.000001 z"
       transform="translate(-934.64395,-98.011622)"
       id="path5663"
       style="color:#000000;fill:none;stroke:#000000;stroke-width:3.54330707;stroke-linecap:round;stroke-linejoin:miter;stroke-miterlimit:4;stroke-opacity:1;stroke-dashoffset:0;marker:none;visibility:visible;display:inline;overflow:visible;enable-background:accumulate" />
    <path
       d="M 104,80.000001 39.584401,79.760055 7.5844008,23.854537 40,-31.811036 l 64.4156,0.239946 32,55.905518 L 104,80.000001 z"
       transform="translate(-838.64395,-42.011622)"
       id="path5665"
       style="color:#000000;fill:none;stroke:#000000;stroke-width:3.54330707;stroke-linecap:round;stroke-linejoin:miter;stroke-miterlimit:4;stroke-opacity:1;stroke-dashoffset:0;marker:none;visibility:visible;display:inline;overflow:visible;enable-background:accumulate" />
    <path
       d="M 104,80.000001 39.584401,79.760055 7.5844008,23.854537 40,-31.811036 l 64.4156,0.239946 32,55.905518 L 104,80.000001 z"
       transform="translate(-1510.2283,462.22833)"
       id="path5667"
       style="color:#000000;fill:none;stroke:#000000;stroke-width:3.54330707;stroke-linecap:round;stroke-linejoin:miter;stroke-miterlimit:4;stroke-opacity:1;stroke-dashoffset:0;marker:none;visibility:visible;display:inline;overflow:visible;enable-background:accumulate" />
    <path
       d="M 104,80.000001 39.584401,79.760055 7.5844008,23.854537 40,-31.811036 l 64.4156,0.239946 32,55.905518 L 104,80.000001 z"
       transform="translate(-1414.2283,518.22833)"
       id="path5669"
       style="color:#000000;fill:none;stroke:#000000;stroke-width:3.54330707;stroke-linecap:round;stroke-linejoin:miter;stroke-miterlimit:4;stroke-opacity:1;stroke-dashoffset:0;marker:none;visibility:visible;display:inline;overflow:visible;enable-background:accumulate" />
    <path
       d="M 104,80.000001 39.584401,79.760055 7.5844008,23.854537 40,-31.811036 l 64.4156,0.239946 32,55.905518 L 104,80.000001 z"
       transform="translate(-1413.8127,406.46833)"
       id="path5671"
       style="color:#000000;fill:none;stroke:#000000;stroke-width:3.54330707;stroke-linecap:round;stroke-linejoin:miter;stroke-miterlimit:4;stroke-opacity:1;stroke-dashoffset:0;marker:none;visibility:visible;display:inline;overflow:visible;enable-background:accumulate" />
    <path
       d="M 104,80.000001 39.584401,79.760055 7.5844008,23.854537 40,-31.811036 l 64.4156,0.239946 32,55.905518 L 104,80.000001 z"
       transform="translate(-1317.8127,462.46833)"
       id="path5673"
       style="color:#000000;fill:none;stroke:#000000;stroke-width:3.54330707;stroke-linecap:round;stroke-linejoin:miter;stroke-miterlimit:4;stroke-opacity:1;stroke-dashoffset:0;marker:none;visibility:visible;display:inline;overflow:visible;enable-background:accumulate" />
    <path
       d="M 104,80.000001 39.584401,79.760055 7.5844008,23.854537 40,-31.811036 l 64.4156,0.239946 32,55.905518 L 104,80.000001 z"
       transform="translate(-1605.8127,294.65724)"
       id="path5675"
       style="color:#000000;fill:none;stroke:#000000;stroke-width:3.54330707;stroke-linecap:round;stroke-linejoin:miter;stroke-miterlimit:4;stroke-opacity:1;stroke-dashoffset:0;marker:none;visibility:visible;display:inline;overflow:visible;enable-background:accumulate" />
    <path
       d="M 104,80.000001 39.584401,79.760055 7.5844008,23.854537 40,-31.811036 l 64.4156,0.239946 32,55.905518 L 104,80.000001 z"
       transform="translate(-1509.8127,350.65724)"
       id="path5677"
       style="color:#000000;fill:none;stroke:#000000;stroke-width:3.54330707;stroke-linecap:round;stroke-linejoin:miter;stroke-miterlimit:4;stroke-opacity:1;stroke-dashoffset:0;marker:none;visibility:visible;display:inline;overflow:visible;enable-background:accumulate" />
    <path
       d="M 104,80.000001 39.584401,79.760055 7.5844008,23.854537 40,-31.811036 l 64.4156,0.239946 32,55.905518 L 104,80.000001 z"
       transform="translate(-1509.3971,238.89719)"
       id="path5679"
       style="color:#000000;fill:none;stroke:#000000;stroke-width:3.54330707;stroke-linecap:round;stroke-linejoin:miter;stroke-miterlimit:4;stroke-opacity:1;stroke-dashoffset:0;marker:none;visibility:visible;display:inline;overflow:visible;enable-background:accumulate" />
    <path
       d="M 104,80.000001 39.584401,79.760055 7.5844008,23.854537 40,-31.811036 l 64.4156,0.239946 32,55.905518 L 104,80.000001 z"
       transform="translate(-1413.3971,294.89719)"
       id="path5681"
       style="color:#000000;fill:none;stroke:#000000;stroke-width:3.54330707;stroke-linecap:round;stroke-linejoin:miter;stroke-miterlimit:4;stroke-opacity:1;stroke-dashoffset:0;marker:none;visibility:visible;display:inline;overflow:visible;enable-background:accumulate" />
    <path
       d="M 104,80.000001 39.584401,79.760055 7.5844008,23.854537 40,-31.811036 l 64.4156,0.239946 32,55.905518 L 104,80.000001 z"
       transform="translate(-1413.8127,630.56273)"
       id="path5683"
       style="color:#000000;fill:none;stroke:#000000;stroke-width:3.54330707;stroke-linecap:round;stroke-linejoin:miter;stroke-miterlimit:4;stroke-opacity:1;stroke-dashoffset:0;marker:none;visibility:visible;display:inline;overflow:visible;enable-background:accumulate" />
    <path
       d="M 104,80.000001 39.584401,79.760055 7.5844008,23.854537 40,-31.811036 l 64.4156,0.239946 32,55.905518 L 104,80.000001 z"
       transform="translate(-1317.8127,686.56273)"
       id="path5685"
       style="color:#000000;fill:none;stroke:#000000;stroke-width:3.54330707;stroke-linecap:round;stroke-linejoin:miter;stroke-miterlimit:4;stroke-opacity:1;stroke-dashoffset:0;marker:none;visibility:visible;display:inline;overflow:visible;enable-background:accumulate" />
    <path
       d="M 104,80.000001 39.584401,79.760055 7.5844008,23.854537 40,-31.811036 l 64.4156,0.239946 32,55.905518 L 104,80.000001 z"
       transform="translate(-1317.3971,574.80273)"
       id="path5687"
       style="color:#000000;fill:none;stroke:#000000;stroke-width:3.54330707;stroke-linecap:round;stroke-linejoin:miter;stroke-miterlimit:4;stroke-opacity:1;stroke-dashoffset:0;marker:none;visibility:visible;display:inline;overflow:visible;enable-background:accumulate" />
    <path
       d="M 104,80.000001 39.584401,79.760055 7.5844008,23.854537 40,-31.811036 l 64.4156,0.239946 32,55.905518 L 104,80.000001 z"
       transform="translate(-1221.3971,630.80273)"
       id="path5689"
       style="color:#000000;fill:none;stroke:#000000;stroke-width:3.54330707;stroke-linecap:round;stroke-linejoin:miter;stroke-miterlimit:4;stroke-opacity:1;stroke-dashoffset:0;marker:none;visibility:visible;display:inline;overflow:visible;enable-background:accumulate" />
    <path
       d="M 104,80.000001 39.584401,79.760055 7.5844008,23.854537 40,-31.811036 l 64.4156,0.239946 32,55.905518 L 104,80.000001 z"
       transform="translate(-742.22835,686.32283)"
       id="path5691"
       style="color:#000000;fill:none;stroke:#000000;stroke-width:3.54330707;stroke-linecap:round;stroke-linejoin:miter;stroke-miterlimit:4;stroke-opacity:1;stroke-dashoffset:0;marker:none;visibility:visible;display:inline;overflow:visible;enable-background:accumulate" />
    <path
       d="M 104,80.000001 39.584401,79.760055 7.5844008,23.854537 40,-31.811036 l 64.4156,0.239946 32,55.905518 L 104,80.000001 z"
       transform="translate(-646.22835,742.32283)"
       id="path5693"
       style="color:#000000;fill:none;stroke:#000000;stroke-width:3.54330707;stroke-linecap:round;stroke-linejoin:miter;stroke-miterlimit:4;stroke-opacity:1;stroke-dashoffset:0;marker:none;visibility:visible;display:inline;overflow:visible;enable-background:accumulate" />
    <path
       d="M 104,80.000001 39.584401,79.760055 7.5844008,23.854537 40,-31.811036 l 64.4156,0.239946 32,55.905518 L 104,80.000001 z"
       transform="translate(-645.81275,630.56273)"
       id="path5695"
       style="color:#000000;fill:none;stroke:#000000;stroke-width:3.54330707;stroke-linecap:round;stroke-linejoin:miter;stroke-miterlimit:4;stroke-opacity:1;stroke-dashoffset:0;marker:none;visibility:visible;display:inline;overflow:visible;enable-background:accumulate" />
    <path
       d="M 104,80.000001 39.584401,79.760055 7.5844008,23.854537 40,-31.811036 l 64.4156,0.239946 32,55.905518 L 104,80.000001 z"
       transform="translate(-549.81275,686.56273)"
       id="path5697"
       style="color:#000000;fill:none;stroke:#000000;stroke-width:3.54330707;stroke-linecap:round;stroke-linejoin:miter;stroke-miterlimit:4;stroke-opacity:1;stroke-dashoffset:0;marker:none;visibility:visible;display:inline;overflow:visible;enable-background:accumulate" />
    <path
       d="M 104,80.000001 39.584401,79.760055 7.5844008,23.854537 40,-31.811036 l 64.4156,0.239946 32,55.905518 L 104,80.000001 z"
       transform="translate(-1126.2283,686.22833)"
       id="path5699"
       style="color:#000000;fill:none;stroke:#000000;stroke-width:3.54330707;stroke-linecap:round;stroke-linejoin:miter;stroke-miterlimit:4;stroke-opacity:1;stroke-dashoffset:0;marker:none;visibility:visible;display:inline;overflow:visible;enable-background:accumulate" />
    <path
       d="M 104,80.000001 39.584401,79.760055 7.5844008,23.854537 40,-31.811036 l 64.4156,0.239946 32,55.905518 L 104,80.000001 z"
       transform="translate(-1030.2283,742.22833)"
       id="path5701"
       style="color:#000000;fill:none;stroke:#000000;stroke-width:3.54330707;stroke-linecap:round;stroke-linejoin:miter;stroke-miterlimit:4;stroke-opacity:1;stroke-dashoffset:0;marker:none;visibility:visible;display:inline;overflow:visible;enable-background:accumulate" />
    <path
       d="M 104,80.000001 39.584401,79.760055 7.5844008,23.854537 40,-31.811036 l 64.4156,0.239946 32,55.905518 L 104,80.000001 z"
       transform="translate(-1029.8127,630.46833)"
       id="path5703"
       style="color:#000000;fill:none;stroke:#000000;stroke-width:3.54330707;stroke-linecap:round;stroke-linejoin:miter;stroke-miterlimit:4;stroke-opacity:1;stroke-dashoffset:0;marker:none;visibility:visible;display:inline;overflow:visible;enable-background:accumulate" />
    <path
       d="M 104,80.000001 39.584401,79.760055 7.5844008,23.854537 40,-31.811036 l 64.4156,0.239946 32,55.905518 L 104,80.000001 z"
       transform="translate(-933.81275,686.46833)"
       id="path5705"
       style="color:#000000;fill:none;stroke:#000000;stroke-width:3.54330707;stroke-linecap:round;stroke-linejoin:miter;stroke-miterlimit:4;stroke-opacity:1;stroke-dashoffset:0;marker:none;visibility:visible;display:inline;overflow:visible;enable-background:accumulate" />
  </g>
</svg>
